<svg height="480pt" viewBox="0 -72 480 480" width="480pt" xmlns="http://www.w3.org/2000/svg"><path d="m472 32h-24v-24c0-4.417969-3.582031-8-8-8h-168c-12.640625.0351562-24.511719 6.0625-32 16.246094-7.488281-10.183594-19.359375-16.2109378-32-16.246094h-168c-4.417969 0-8 3.582031-8 8v24h-24c-4.417969 0-8 3.582031-8 8v288c0 4.417969 3.582031 8 8 8h464c4.417969 0 8-3.582031 8-8v-288c0-4.417969-3.582031-8-8-8zm-200-16h160v272h-160c-8.683594.03125-17.117188 2.914062-24 8.207031v-256.207031c0-13.253906 10.746094-24 24-24zm-224 0h160c13.253906 0 24 10.746094 24 24v256.207031c-6.882812-5.292969-15.316406-8.175781-24-8.207031h-160zm-32 32h16v272h-16zm32 272v-16h160c10.167969.011719 19.230469 6.417969 22.632812 16zm224-16h160v16h-182.632812c3.402343-9.582031 12.464843-15.988281 22.632812-16zm192 16h-16v-272h16zm0 0"/><path d="m304 161.792969v62.207031c-.015625 2.78125 1.414062 5.367188 3.773438 6.835938 2.363281 1.46875 5.316406 1.605468 7.800781.363281l28.425781-14.253907 28.425781 14.253907c2.484375 1.242187 5.4375 1.105469 7.800781-.363281 2.359376-1.46875 3.789063-4.054688 3.773438-6.835938v-62.214844c21.214844-16.984375 29.386719-45.515625 20.386719-71.15625-9-25.644531-33.210938-42.804687-60.386719-42.804687s-51.386719 17.160156-60.386719 42.804687c-9 25.640625-.828125 54.171875 20.386719 71.15625zm64 49.261719-20.425781-10.253907c-2.25-1.125-4.898438-1.125-7.148438 0l-20.425781 10.253907v-39.695313c1.183594.488281 2.398438.863281 3.632812 1.265625.535157.183594 1.054688.390625 1.597657.550781 2.527343.757813 5.097656 1.355469 7.699219 1.792969 1 .167969 2 .296875 3.015624.421875 2.046876.25 4.109376.410156 6.175782.464844.640625 0 1.246094.144531 1.886718.144531.640626 0 1.257813-.128906 1.886719-.144531 2.066407-.054688 4.128907-.214844 6.175781-.464844 1.019532-.125 2.027344-.253906 3.027344-.421875 2.582032-.4375 5.140625-1.03125 7.65625-1.777344.566406-.175781 1.117188-.398437 1.6875-.582031 1.191406-.402344 2.398438-.800781 3.566406-1.25zm-24-147.054688c20.964844.023438 39.488281 13.648438 45.753906 33.652344s-1.175781 41.761718-18.378906 53.738281c-12.21875 8.34375-27.570312 10.675781-41.71875 6.335937-4.683594-1.417968-9.105469-3.578124-13.105469-6.398437-17.15625-12.003906-24.550781-33.746094-18.269531-53.722656 6.277344-19.972657 24.78125-33.574219 45.71875-33.605469zm0 0"/><path d="m344 144c17.671875 0 32-14.328125 32-32s-14.328125-32-32-32-32 14.328125-32 32 14.328125 32 32 32zm0-48c8.835938 0 16 7.164062 16 16s-7.164062 16-16 16-16-7.164062-16-16 7.164062-16 16-16zm0 0"/><path d="m80 72h96v16h-96zm0 0"/><path d="m80 120h96v16h-96zm0 0"/><path d="m80 168h96v16h-96zm0 0"/><path d="m80 216h96v16h-96zm0 0"/></svg>