<?xml version="1.0" encoding="iso-8859-1"?>
<!-- Generator: Adobe Illustrator 19.0.0, SVG Export Plug-In . SVG Version: 6.00 Build 0)  -->
<svg version="1.1" id="Layer_1" xmlns="http://www.w3.org/2000/svg" xmlns:xlink="http://www.w3.org/1999/xlink" x="0px" y="0px"
	 viewBox="0 0 489 489" style="enable-background:new 0 0 489 489;" xml:space="preserve">
<g>
	<g>
		<path d="M335.05,369.9l-84.5-48.8v-97.6c0-3.3-2.7-6-6-6s-6,2.7-6,6v97.6l-84.5,48.8c-2.9,1.6-3.9,5.3-2.2,8.2
			c1.1,1.9,3.1,3,5.2,3c1,0,2-0.3,3-0.8l84.5-48.8l84.5,48.8c0.9,0.5,2,0.8,3,0.8c2.1,0,4.1-1.1,5.2-3
			C338.95,375.2,337.95,371.6,335.05,369.9z"/>
	</g>
</g>
<g>
	<g>
		<path d="M257.75,83.7h-25.8c-12.3,0-22.3-10-22.3-22.3c0-12.3,10-22.3,22.3-22.3h45.6c3.3,0,6-2.7,6-6s-2.7-6-6-6h-26.7V6
			c0-3.3-2.7-6-6-6s-6,2.7-6,6v21h-6.9c-18.9,0-34.3,15.4-34.3,34.3c0,19,15.4,34.4,34.3,34.4h25.8c12.3,0,22.3,10,22.3,22.3
			s-10,22.3-22.3,22.3h-46.4c-3.3,0-6,2.7-6,6s2.7,6,6,6h27.5v21.4c0,3.3,2.7,6,6,6s6-2.7,6-6v-21.4h6.9c18.9,0,34.3-15.4,34.3-34.3
			S276.65,83.7,257.75,83.7z"/>
	</g>
</g>
<g>
	<g>
		<path d="M435.15,393h-25.8c-12.3,0-22.3-10-22.3-22.3c-0.1-12.4,9.9-22.4,22.2-22.4h45.6c3.3,0,6-2.7,6-6s-2.7-6-6-6h-26.7v-21
			c0-3.3-2.7-6-6-6s-6,2.7-6,6v21h-6.9c-18.9,0-34.3,15.4-34.3,34.3c0,18.9,15.4,34.3,34.3,34.3h25.8c12.3,0,22.3,10,22.3,22.3
			s-10,22.3-22.3,22.3h-46.4c-3.3,0-6,2.7-6,6s2.7,6,6,6h27.5V483c0,3.3,2.7,6,6,6s6-2.7,6-6v-21.4h6.9c18.9,0,34.3-15.4,34.3-34.3
			C469.35,408.4,454.05,393,435.15,393z"/>
	</g>
</g>
<g>
	<g>
		<path d="M79.85,393h-25.9c-12.3,0-22.3-10-22.3-22.3s10-22.3,22.3-22.3h45.6c3.3,0,6-2.7,6-6s-2.7-6-6-6h-26.6v-21
			c0-3.3-2.7-6-6-6c-3.3,0-6,2.7-6,6v21h-6.9c-19-0.1-34.4,15.3-34.4,34.3c0,18.9,15.4,34.3,34.3,34.3h25.8
			c12.3,0,22.3,10,22.3,22.3s-10,22.3-22.3,22.3h-46.3c-3.3,0-6,2.7-6,6s2.7,6,6,6h27.5V483c0,3.3,2.7,6,6,6c3.3,0,6-2.7,6-6v-21.4
			h6.9c18.9,0,34.3-15.4,34.3-34.3C114.15,408.4,98.75,393,79.85,393z"/>
	</g>
</g>
<g>
</g>
<g>
</g>
<g>
</g>
<g>
</g>
<g>
</g>
<g>
</g>
<g>
</g>
<g>
</g>
<g>
</g>
<g>
</g>
<g>
</g>
<g>
</g>
<g>
</g>
<g>
</g>
<g>
</g>
</svg>
